<svg width="37" height="36" viewBox="0 0 37 36" fill="none" xmlns="http://www.w3.org/2000/svg">
<path d="M3.7 19.8V23.4H33.3V19.8H3.7ZM3.7 3.05603e-06H33.3C34.3175 3.05603e-06 35.1888 0.352803 35.914 1.0584C36.6392 1.764 37.0012 2.6112 37 3.6V23.4C37 24.39 36.6374 25.2378 35.9122 25.9434C35.187 26.649 34.3163 27.0012 33.3 27H25.9V36L18.5 32.4L11.1 36V27H3.7C2.6825 27 1.81115 26.6472 1.08595 25.9416C0.360753 25.236 -0.00123019 24.3888 3.14092e-06 23.4V3.6C3.14092e-06 2.61 0.362603 1.7622 1.0878 1.0566C1.813 0.351003 2.68374 -0.00119694 3.7 3.05603e-06ZM3.7 14.4H33.3V3.6H3.7V14.4Z" fill="#54CF79"/>
</svg>
