<svg width="45" height="48" viewBox="0 0 45 48" fill="none" xmlns="http://www.w3.org/2000/svg">
<path d="M21.8176 3.12074C22.0548 2.91464 22.3585 2.80115 22.6727 2.80115C22.987 2.80115 23.2907 2.91464 23.5279 3.12074L27.7615 6.79796C27.8934 6.91261 28.0469 6.99958 28.2131 7.05371C28.3792 7.10785 28.5545 7.12804 28.7286 7.11309L34.3183 6.62627C34.6313 6.59939 34.9434 6.68638 35.1974 6.87125C35.4513 7.05612 35.63 7.32643 35.7006 7.63251L36.9654 13.0962C37.0045 13.2669 37.0775 13.428 37.1802 13.5699C37.2829 13.7118 37.4131 13.8316 37.5631 13.922L42.3704 16.8125C42.6394 16.9745 42.8409 17.2281 42.938 17.5267C43.035 17.8254 43.021 18.149 42.8985 18.4381L40.7078 23.6019C40.6397 23.7628 40.6046 23.9357 40.6046 24.1104C40.6046 24.2852 40.6397 24.4581 40.7078 24.619L42.8985 29.7827C43.0216 30.0721 43.0359 30.3963 42.9389 30.6954C42.8418 30.9945 42.6399 31.2485 42.3704 31.4105L37.5631 34.301C37.4133 34.3912 37.2833 34.5106 37.1806 34.6521C37.0779 34.7936 37.0047 34.9543 36.9654 35.1247L35.7006 40.5884C35.63 40.8944 35.4513 41.1648 35.1974 41.3496C34.9434 41.5345 34.6313 41.6215 34.3183 41.5946L28.7286 41.1078C28.5547 41.0925 28.3795 41.1124 28.2133 41.1661C28.0472 41.2199 27.8936 41.3065 27.7615 41.4207L23.5258 45.1001C23.2885 45.3062 22.9848 45.4197 22.6706 45.4197C22.3563 45.4197 22.0526 45.3062 21.8154 45.1001L17.5818 41.4207C17.4498 41.3065 17.2961 41.2199 17.13 41.1661C16.9639 41.1124 16.7886 41.0925 16.6147 41.1078L11.025 41.5946C10.712 41.6215 10.3999 41.5345 10.1459 41.3496C9.892 41.1648 9.71332 40.8944 9.64275 40.5884L8.37789 35.1247C8.33884 34.954 8.2658 34.7928 8.16311 34.6509C8.06043 34.5091 7.93021 34.3893 7.78024 34.2988L2.97291 31.4084C2.7039 31.2464 2.50238 30.9928 2.40536 30.6941C2.30834 30.3955 2.32234 30.0719 2.4448 29.7827L4.63548 24.619C4.70362 24.4581 4.73873 24.2852 4.73873 24.1104C4.73873 23.9357 4.70362 23.7628 4.63548 23.6019L2.4448 18.4381C2.32174 18.1487 2.30742 17.8246 2.40446 17.5255C2.50151 17.2264 2.70339 16.9724 2.97291 16.8103L7.78024 13.9198C7.92998 13.8296 8.06006 13.7102 8.16273 13.5687C8.26541 13.4272 8.33858 13.2665 8.37789 13.0962L9.64275 7.63251C9.71332 7.32643 9.892 7.05612 10.1459 6.87125C10.3999 6.68638 10.712 6.59939 11.025 6.62627L16.6147 7.11309C16.7888 7.12804 16.9641 7.10785 17.1302 7.05371C17.2964 6.99958 17.4499 6.91261 17.5818 6.79796L21.8176 3.12074Z" stroke="#FF7777" stroke-width="3.75"/>
<path d="M16.1519 26.2838L20.4984 30.6304L31.3649 19.7639" stroke="#FF7777" stroke-width="3.75" stroke-linecap="round" stroke-linejoin="round"/>
</svg>
