<svg width="39" height="34" viewBox="0 0 39 34" fill="none" xmlns="http://www.w3.org/2000/svg">
<path d="M3.45644 3.38861C5.56214 1.32388 8.38641 0.11622 11.3625 0.00796097C14.3387 -0.100298 17.2465 0.898852 19.5025 2.80492C21.7564 0.902027 24.6604 -0.0959982 27.6329 0.0106504C30.6055 0.117299 33.4273 1.32075 35.5333 3.38008C37.6394 5.4394 38.8744 8.20261 38.9909 11.1165C39.1075 14.0304 38.0971 16.88 36.162 19.0947L22.0673 32.9571C21.4197 33.5922 20.5512 33.9638 19.6359 33.9975C18.7206 34.0312 17.8261 33.7244 17.1319 33.1387L16.9322 32.9589L2.83929 19.0947C0.905213 16.8819 -0.105667 14.035 0.00875228 11.1231C0.123172 8.21121 1.35446 5.44896 3.45644 3.38861ZM6.02308 5.90485C4.53871 7.36047 3.68307 9.32054 3.63372 11.3782C3.58438 13.436 4.34512 15.4333 5.75806 16.9557L6.02308 17.2297L19.5006 30.4427L29.1264 21.0023L22.7098 14.7135L20.7858 16.5998C19.7647 17.6013 18.3796 18.1641 16.9353 18.1644C15.4909 18.1648 14.1056 17.6026 13.084 16.6016C12.0625 15.6005 11.4884 14.2427 11.4881 12.8267C11.4877 11.4107 12.0612 10.0525 13.0822 9.05105L16.8977 5.30871C15.3793 4.12066 13.4787 3.50194 11.537 3.56358C9.59524 3.62522 7.73947 4.36317 6.30261 5.64504L6.02308 5.90485ZM21.4265 10.9373C21.7669 10.6037 22.2285 10.4163 22.7098 10.4163C23.1912 10.4163 23.6528 10.6037 23.9932 10.9373L31.6931 18.4861L32.9782 17.2297C34.4874 15.7512 35.3466 13.7524 35.3721 11.6608C35.3975 9.56925 34.5872 7.55094 33.1144 6.03752C31.6416 4.52411 29.6232 3.63573 27.4909 3.56238C25.3586 3.48904 23.2816 4.23654 21.7042 5.64504L21.4265 5.90485L15.6507 11.5673C15.3361 11.8755 15.1478 12.2863 15.1217 12.7216C15.0956 13.1569 15.2335 13.5865 15.5091 13.9287L15.6507 14.0835C15.9651 14.392 16.3841 14.5765 16.8281 14.6021C17.2721 14.6277 17.7103 14.4925 18.0594 14.2223L18.2173 14.0835L21.4265 10.9373Z" fill="#84AFFF"/>
</svg>
